<svg viewBox="0 0 420 420" xmlns="http://www.w3.org/2000/svg">
<circle cx="335" cy="354" r="488" fill="#ffb69c" fill-opacity="0.5" />
<circle cx="213" cy="127" r="118" fill="#000712" fill-opacity="0.5" />
<circle cx="37" cy="12" r="99" fill="#fffff8" fill-opacity="0.5" />
<circle cx="381" cy="272" r="76" fill="#ffffff" fill-opacity="0.5" />
<circle cx="405" cy="86" r="97" fill="#ffffff" fill-opacity="0.5" />
<circle cx="7" cy="274" r="99" fill="#fffffe" fill-opacity="0.5" />
<circle cx="141" cy="419" r="108" fill="#000000" fill-opacity="0.5" />
<circle cx="5" cy="151" r="61" fill="#f9fff0" fill-opacity="0.5" />
<circle cx="316" cy="407" r="84" fill="#000002" fill-opacity="0.5" />
<circle cx="216" cy="206" r="69" fill="#b56d5a" fill-opacity="0.5" />
<circle cx="318" cy="120" r="49" fill="#0d0b12" fill-opacity="0.5" />
<circle cx="58" cy="367" r="65" fill="#000911" fill-opacity="0.5" />
<circle cx="38" cy="326" r="43" fill="#cbc3b0" fill-opacity="0.5" />
<circle cx="108" cy="120" r="50" fill="#000002" fill-opacity="0.5" />
<circle cx="400" cy="234" r="67" fill="#efe3cc" fill-opacity="0.5" />
<circle cx="331" cy="9" r="48" fill="#d9cbb8" fill-opacity="0.5" />
<circle cx="196" cy="312" r="64" fill="#a5614f" fill-opacity="0.5" />
<circle cx="56" cy="273" r="39" fill="#ffffe8" fill-opacity="0.5" />
<circle cx="336" cy="163" r="31" fill="#000003" fill-opacity="0.5" />
<circle cx="359" cy="414" r="61" fill="#0b1b26" fill-opacity="0.5" />
<circle cx="303" cy="241" r="38" fill="#ab7564" fill-opacity="0.5" />
<circle cx="411" cy="22" r="96" fill="#cdbfb0" fill-opacity="0.5" />
<circle cx="98" cy="388" r="51" fill="#070b0e" fill-opacity="0.5" />
<circle cx="256" cy="109" r="84" fill="#312a2b" fill-opacity="0.5" />
<circle cx="147" cy="232" r="29" fill="#ffbda4" fill-opacity="0.5" />
<circle cx="32" cy="204" r="54" fill="#cdbda5" fill-opacity="0.5" />
<circle cx="354" cy="281" r="39" fill="#fff6e1" fill-opacity="0.5" />
<circle cx="297" cy="250" r="34" fill="#d89080" fill-opacity="0.5" />
<circle cx="317" cy="347" r="33" fill="#000000" fill-opacity="0.5" />
<circle cx="221" cy="229" r="30" fill="#ffd1c1" fill-opacity="0.5" />
<circle cx="312" cy="13" r="31" fill="#dacfc5" fill-opacity="0.5" />
<circle cx="14" cy="395" r="26" fill="#051219" fill-opacity="0.5" />
<circle cx="400" cy="335" r="37" fill="#c5d7d2" fill-opacity="0.5" />
<circle cx="173" cy="330" r="34" fill="#96654b" fill-opacity="0.5" />
<circle cx="323" cy="247" r="16" fill="#2f0000" fill-opacity="0.5" />
<circle cx="145" cy="19" r="19" fill="#eff1e7" fill-opacity="0.5" />
<circle cx="90" cy="183" r="21" fill="#000000" fill-opacity="0.5" />
<circle cx="332" cy="196" r="20" fill="#000002" fill-opacity="0.5" />
<circle cx="417" cy="176" r="59" fill="#c3b7aa" fill-opacity="0.5" />
<circle cx="268" cy="11" r="16" fill="#fffff8" fill-opacity="0.5" />
<circle cx="129" cy="274" r="31" fill="#c18368" fill-opacity="0.5" />
<circle cx="260" cy="393" r="51" fill="#654433" fill-opacity="0.5" />
<circle cx="18" cy="105" r="47" fill="#c1b3a1" fill-opacity="0.5" />
<circle cx="188" cy="204" r="25" fill="#48332d" fill-opacity="0.5" />
<circle cx="366" cy="233" r="35" fill="#bbaa9b" fill-opacity="0.5" />
<circle cx="29" cy="194" r="53" fill="#c4b5a5" fill-opacity="0.5" />
<circle cx="141" cy="189" r="32" fill="#634538" fill-opacity="0.5" />
<circle cx="281" cy="243" r="24" fill="#ffc1b0" fill-opacity="0.5" />
<circle cx="158" cy="239" r="22" fill="#ffae9e" fill-opacity="0.5" />
<circle cx="219" cy="253" r="17" fill="#ffd2c5" fill-opacity="0.5" />
<circle cx="293" cy="107" r="29" fill="#4b464a" fill-opacity="0.5" />
<circle cx="139" cy="79" r="37" fill="#1f1e21" fill-opacity="0.5" />
<circle cx="306" cy="355" r="30" fill="#000008" fill-opacity="0.5" />
<circle cx="253" cy="209" r="26" fill="#4a2f2b" fill-opacity="0.5" />
<circle cx="231" cy="305" r="41" fill="#6e3a34" fill-opacity="0.5" />
<circle cx="217" cy="168" r="24" fill="#995c4c" fill-opacity="0.5" />
<circle cx="15" cy="258" r="41" fill="#f8e3cf" fill-opacity="0.5" />
<circle cx="115" cy="3" r="43" fill="#d3c7b5" fill-opacity="0.5" />
<circle cx="320" cy="213" r="17" fill="#000004" fill-opacity="0.5" />
<circle cx="88" cy="318" r="10" fill="#c9c1af" fill-opacity="0.5" />
<circle cx="124" cy="192" r="15" fill="#ad7d62" fill-opacity="0.5" />
<circle cx="399" cy="200" r="51" fill="#bfb0a4" fill-opacity="0.5" />
<circle cx="301" cy="270" r="20" fill="#714c3c" fill-opacity="0.5" />
<circle cx="412" cy="292" r="31" fill="#fffcef" fill-opacity="0.5" />
<circle cx="267" cy="246" r="20" fill="#ffbeb2" fill-opacity="0.5" />
<circle cx="175" cy="240" r="18" fill="#e99d90" fill-opacity="0.5" />
<circle cx="237" cy="44" r="34" fill="#16191e" fill-opacity="0.5" />
<circle cx="11" cy="328" r="29" fill="#858177" fill-opacity="0.5" />
<circle cx="98" cy="197" r="20" fill="#000007" fill-opacity="0.5" />
<circle cx="145" cy="43" r="18" fill="#655d60" fill-opacity="0.5" />
<circle cx="25" cy="419" r="53" fill="#242326" fill-opacity="0.5" />
<circle cx="308" cy="411" r="14" fill="#8b8a93" fill-opacity="0.5" />
<circle cx="242" cy="340" r="29" fill="#8a5c47" fill-opacity="0.5" />
<circle cx="35" cy="193" r="49" fill="#beb0a1" fill-opacity="0.5" />
<circle cx="7" cy="358" r="15" fill="#afaaa7" fill-opacity="0.5" />
<circle cx="104" cy="247" r="16" fill="#732c1a" fill-opacity="0.5" />
<circle cx="250" cy="243" r="15" fill="#ffc4b5" fill-opacity="0.5" />
<circle cx="206" cy="232" r="21" fill="#ffb6a3" fill-opacity="0.5" />
<circle cx="256" cy="276" r="17" fill="#9d604d" fill-opacity="0.5" />
<circle cx="403" cy="335" r="15" fill="#7c7264" fill-opacity="0.5" />
<circle cx="290" cy="2" r="26" fill="#d1c5b7" fill-opacity="0.5" />
<circle cx="405" cy="409" r="31" fill="#171a1e" fill-opacity="0.5" />
<circle cx="159" cy="213" r="15" fill="#492923" fill-opacity="0.5" />
<circle cx="242" cy="5" r="11" fill="#f7fbf4" fill-opacity="0.5" />
<circle cx="221" cy="59" r="21" fill="#575155" fill-opacity="0.5" />
<circle cx="137" cy="309" r="17" fill="#ac7961" fill-opacity="0.5" />
<circle cx="339" cy="169" r="23" fill="#15141a" fill-opacity="0.5" />
<circle cx="166" cy="2" r="11" fill="#fffffe" fill-opacity="0.5" />
<circle cx="174" cy="38" r="26" fill="#3f3e42" fill-opacity="0.5" />
<circle cx="309" cy="317" r="11" fill="#000000" fill-opacity="0.5" />
<circle cx="90" cy="114" r="26" fill="#1d1e21" fill-opacity="0.5" />
<circle cx="368" cy="341" r="20" fill="#7c7468" fill-opacity="0.5" />
<circle cx="176" cy="102" r="38" fill="#1e1a1c" fill-opacity="0.5" />
<circle cx="69" cy="93" r="7" fill="#e4d2bc" fill-opacity="0.5" />
<circle cx="135" cy="419" r="27" fill="#000000" fill-opacity="0.5" />
<circle cx="328" cy="133" r="35" fill="#2b2528" fill-opacity="0.5" />
<circle cx="347" cy="359" r="20" fill="#27282b" fill-opacity="0.5" />
<circle cx="367" cy="111" r="12" fill="#ece2db" fill-opacity="0.5" />
<circle cx="333" cy="30" r="31" fill="#c7b7a9" fill-opacity="0.5" />
<circle cx="83" cy="283" r="26" fill="#fff0e3" fill-opacity="0.5" />
<circle cx="266" cy="319" r="28" fill="#8c5c47" fill-opacity="0.5" />
<circle cx="211" cy="291" r="25" fill="#58342d" fill-opacity="0.5" />
<circle cx="110" cy="336" r="22" fill="#0f0d11" fill-opacity="0.5" />
<circle cx="226" cy="180" r="32" fill="#754b42" fill-opacity="0.5" />
<circle cx="108" cy="303" r="7" fill="#ffffff" fill-opacity="0.5" />
<circle cx="165" cy="286" r="32" fill="#8e594a" fill-opacity="0.5" />
<circle cx="347" cy="287" r="20" fill="#ffefd9" fill-opacity="0.5" />
<circle cx="138" cy="232" r="17" fill="#e79d88" fill-opacity="0.5" />
<circle cx="71" cy="0" r="71" fill="#c5b8a6" fill-opacity="0.5" />
<circle cx="276" cy="206" r="25" fill="#734f45" fill-opacity="0.5" />
<circle cx="25" cy="88" r="46" fill="#c0b0a0" fill-opacity="0.5" />
<circle cx="110" cy="320" r="14" fill="#00050a" fill-opacity="0.5" />
<circle cx="96" cy="175" r="20" fill="#111013" fill-opacity="0.5" />
<circle cx="122" cy="244" r="14" fill="#c18e77" fill-opacity="0.5" />
<circle cx="107" cy="294" r="10" fill="#ffffff" fill-opacity="0.5" />
<circle cx="319" cy="301" r="9" fill="#fffdf5" fill-opacity="0.5" />
<circle cx="200" cy="24" r="18" fill="#1b191c" fill-opacity="0.5" />
<circle cx="80" cy="324" r="12" fill="#959085" fill-opacity="0.5" />
<circle cx="402" cy="347" r="27" fill="#a29f98" fill-opacity="0.5" />
<circle cx="419" cy="402" r="20" fill="#000000" fill-opacity="0.5" />
<circle cx="190" cy="159" r="13" fill="#996455" fill-opacity="0.5" />
<circle cx="0" cy="272" r="24" fill="#fbecd6" fill-opacity="0.5" />
<circle cx="206" cy="350" r="12" fill="#a86d59" fill-opacity="0.5" />
<circle cx="265" cy="58" r="37" fill="#1e1d21" fill-opacity="0.5" />
<circle cx="66" cy="137" r="12" fill="#595751" fill-opacity="0.5" />
<circle cx="254" cy="203" r="28" fill="#563932" fill-opacity="0.5" />
<circle cx="30" cy="151" r="12" fill="#e9dcd2" fill-opacity="0.5" />
<circle cx="94" cy="135" r="22" fill="#181517" fill-opacity="0.5" />
<circle cx="387" cy="34" r="12" fill="#f6ece1" fill-opacity="0.5" />
<circle cx="289" cy="201" r="20" fill="#7c584a" fill-opacity="0.5" />
<circle cx="6" cy="344" r="30" fill="#a09a94" fill-opacity="0.5" />
<circle cx="236" cy="398" r="22" fill="#583d31" fill-opacity="0.5" />
<circle cx="282" cy="398" r="11" fill="#241415" fill-opacity="0.5" />
<circle cx="106" cy="205" r="13" fill="#00030a" fill-opacity="0.5" />
<circle cx="418" cy="9" r="30" fill="#d2c4b9" fill-opacity="0.5" />
<circle cx="178" cy="334" r="18" fill="#aa6e56" fill-opacity="0.5" />
<circle cx="260" cy="178" r="8" fill="#000001" fill-opacity="0.5" />
<circle cx="8" cy="321" r="17" fill="#807b6d" fill-opacity="0.5" />
<circle cx="78" cy="247" r="13" fill="#dbc2ab" fill-opacity="0.5" />
<circle cx="103" cy="82" r="15" fill="#332b2c" fill-opacity="0.5" />
<circle cx="330" cy="232" r="11" fill="#5a2a1f" fill-opacity="0.5" />
<circle cx="217" cy="396" r="16" fill="#3e2821" fill-opacity="0.5" />
<circle cx="103" cy="249" r="7" fill="#350d0a" fill-opacity="0.5" />
<circle cx="313" cy="390" r="14" fill="#000001" fill-opacity="0.5" />
<circle cx="239" cy="411" r="19" fill="#5f4135" fill-opacity="0.5" />
<circle cx="332" cy="99" r="19" fill="#3b3639" fill-opacity="0.5" />
<circle cx="78" cy="220" r="14" fill="#cabca7" fill-opacity="0.5" />
<circle cx="34" cy="69" r="8" fill="#f2e6db" fill-opacity="0.5" />
<circle cx="44" cy="371" r="10" fill="#151317" fill-opacity="0.5" />
<circle cx="44" cy="323" r="23" fill="#8f897f" fill-opacity="0.5" />
<circle cx="170" cy="416" r="11" fill="#734d3b" fill-opacity="0.5" />
<circle cx="298" cy="84" r="31" fill="#403b3f" fill-opacity="0.5" />
<circle cx="300" cy="257" r="14" fill="#d69282" fill-opacity="0.5" />
<circle cx="173" cy="174" r="9" fill="#000007" fill-opacity="0.5" />
<circle cx="113" cy="403" r="26" fill="#0b0b0d" fill-opacity="0.5" />
<circle cx="8" cy="192" r="23" fill="#bbab9d" fill-opacity="0.5" />
<circle cx="289" cy="230" r="13" fill="#e49880" fill-opacity="0.5" />
<circle cx="127" cy="369" r="13" fill="#03040c" fill-opacity="0.5" />
<circle cx="387" cy="279" r="30" fill="#f4e0ce" fill-opacity="0.5" />
<circle cx="197" cy="260" r="9" fill="#ffc8b9" fill-opacity="0.5" />
<circle cx="98" cy="221" r="13" fill="#2d1312" fill-opacity="0.5" />
<circle cx="238" cy="338" r="9" fill="#bd806e" fill-opacity="0.5" />
<circle cx="214" cy="253" r="16" fill="#ffb7a9" fill-opacity="0.5" />
<circle cx="312" cy="418" r="8" fill="#f6e1f5" fill-opacity="0.5" />
<circle cx="33" cy="338" r="10" fill="#b6b0a4" fill-opacity="0.5" />
<circle cx="304" cy="405" r="14" fill="#6a5f63" fill-opacity="0.5" />
<circle cx="232" cy="349" r="10" fill="#c98875" fill-opacity="0.5" />
<circle cx="312" cy="261" r="15" fill="#755342" fill-opacity="0.5" />
<circle cx="170" cy="211" r="16" fill="#53332d" fill-opacity="0.5" />
<circle cx="415" cy="235" r="39" fill="#cabcab" fill-opacity="0.5" />
<circle cx="226" cy="4" r="6" fill="#f9fff4" fill-opacity="0.5" />
<circle cx="381" cy="191" r="8" fill="#ece3df" fill-opacity="0.5" />
<circle cx="319" cy="404" r="7" fill="#000000" fill-opacity="0.5" />
<circle cx="59" cy="46" r="8" fill="#f2e8de" fill-opacity="0.5" />
<circle cx="415" cy="401" r="13" fill="#000106" fill-opacity="0.5" />
<circle cx="128" cy="343" r="14" fill="#000000" fill-opacity="0.5" />
<circle cx="255" cy="160" r="12" fill="#9d695c" fill-opacity="0.5" />
<circle cx="281" cy="165" r="18" fill="#583a31" fill-opacity="0.5" />
<circle cx="56" cy="273" r="17" fill="#fdebdf" fill-opacity="0.5" />
<circle cx="195" cy="288" r="9" fill="#a36d5d" fill-opacity="0.5" />
<circle cx="71" cy="336" r="11" fill="#afa69e" fill-opacity="0.5" />
<circle cx="299" cy="255" r="10" fill="#de9787" fill-opacity="0.5" />
<circle cx="76" cy="207" r="9" fill="#e9dbcf" fill-opacity="0.5" />
<circle cx="202" cy="52" r="19" fill="#514c4f" fill-opacity="0.5" />
<circle cx="387" cy="298" r="25" fill="#fff1e9" fill-opacity="0.5" />
<circle cx="417" cy="176" r="35" fill="#beada3" fill-opacity="0.5" />
<circle cx="139" cy="206" r="20" fill="#835a4a" fill-opacity="0.5" />
<circle cx="112" cy="307" r="6" fill="#000000" fill-opacity="0.5" />
<circle cx="67" cy="310" r="8" fill="#847d70" fill-opacity="0.5" />
<circle cx="29" cy="9" r="8" fill="#faecde" fill-opacity="0.5" />
<circle cx="50" cy="379" r="18" fill="#212121" fill-opacity="0.5" />
<circle cx="317" cy="103" r="34" fill="#453e41" fill-opacity="0.5" />
<circle cx="154" cy="40" r="15" fill="#4e4343" fill-opacity="0.5" />
<circle cx="33" cy="102" r="20" fill="#bcac9d" fill-opacity="0.5" />
<circle cx="215" cy="228" r="8" fill="#ffe9e7" fill-opacity="0.5" />
<circle cx="291" cy="44" r="12" fill="#312f31" fill-opacity="0.5" />
<circle cx="147" cy="13" r="9" fill="#f1e4dd" fill-opacity="0.5" />
<circle cx="227" cy="109" r="21" fill="#221b1f" fill-opacity="0.5" />
<circle cx="162" cy="405" r="10" fill="#5f4333" fill-opacity="0.5" />
<circle cx="76" cy="28" r="9" fill="#f4e7dd" fill-opacity="0.5" />
<circle cx="334" cy="308" r="12" fill="#fff4f0" fill-opacity="0.5" />
<circle cx="67" cy="157" r="11" fill="#aca294" fill-opacity="0.5" />
<circle cx="35" cy="123" r="8" fill="#efe0d4" fill-opacity="0.5" />
<circle cx="275" cy="337" r="12" fill="#7b5544" fill-opacity="0.5" />
<circle cx="246" cy="236" r="12" fill="#ffab9b" fill-opacity="0.5" />
<circle cx="121" cy="141" r="29" fill="#191416" fill-opacity="0.5" />
<circle cx="259" cy="208" r="7" fill="#000000" fill-opacity="0.5" />
<circle cx="328" cy="285" r="10" fill="#fffff5" fill-opacity="0.5" />
<circle cx="235" cy="251" r="5" fill="#7a241a" fill-opacity="0.5" />
<circle cx="12" cy="338" r="9" fill="#bfb8ad" fill-opacity="0.5" />
<circle cx="9" cy="156" r="8" fill="#e9e0d4" fill-opacity="0.5" />
<circle cx="257" cy="282" r="19" fill="#8d594b" fill-opacity="0.5" />
<circle cx="19" cy="21" r="7" fill="#f8e8de" fill-opacity="0.5" />
<circle cx="245" cy="311" r="12" fill="#5b362c" fill-opacity="0.5" />
<circle cx="208" cy="388" r="22" fill="#492f26" fill-opacity="0.5" />
<circle cx="291" cy="357" r="13" fill="#3b3230" fill-opacity="0.5" />
<circle cx="215" cy="323" r="22" fill="#773c36" fill-opacity="0.5" />
<circle cx="181" cy="180" r="7" fill="#090f0e" fill-opacity="0.5" />
<circle cx="346" cy="155" r="18" fill="#2a2528" fill-opacity="0.5" />
<circle cx="163" cy="163" r="12" fill="#8c6554" fill-opacity="0.5" />
<circle cx="93" cy="160" r="16" fill="#161417" fill-opacity="0.5" />
<circle cx="384" cy="389" r="23" fill="#29282c" fill-opacity="0.5" />
<circle cx="35" cy="182" r="9" fill="#e7dbce" fill-opacity="0.5" />
<circle cx="94" cy="227" r="10" fill="#985946" fill-opacity="0.5" />
<circle cx="259" cy="2" r="17" fill="#cbbbaf" fill-opacity="0.5" />
<circle cx="200" cy="214" r="10" fill="#794b43" fill-opacity="0.5" />
<circle cx="309" cy="314" r="9" fill="#000005" fill-opacity="0.5" />
<circle cx="340" cy="260" r="10" fill="#dfc8b4" fill-opacity="0.5" />
<circle cx="5" cy="232" r="24" fill="#d3c2ae" fill-opacity="0.5" />
<circle cx="219" cy="15" r="11" fill="#1f1b1d" fill-opacity="0.5" />
<circle cx="348" cy="213" r="12" fill="#c0aea2" fill-opacity="0.5" />
<circle cx="133" cy="350" r="12" fill="#03040a" fill-opacity="0.5" />
<circle cx="334" cy="128" r="26" fill="#363235" fill-opacity="0.5" />
<circle cx="115" cy="73" r="15" fill="#332b2d" fill-opacity="0.5" />
<circle cx="132" cy="312" r="11" fill="#a3705c" fill-opacity="0.5" />
<circle cx="343" cy="225" r="8" fill="#ede3d8" fill-opacity="0.5" />
<circle cx="132" cy="198" r="21" fill="#815b4b" fill-opacity="0.5" />
<circle cx="325" cy="238" r="15" fill="#723d35" fill-opacity="0.5" />
<circle cx="150" cy="376" r="15" fill="#47332b" fill-opacity="0.5" />
<circle cx="361" cy="110" r="5" fill="#fdeddd" fill-opacity="0.5" />
<circle cx="188" cy="310" r="11" fill="#6f2c32" fill-opacity="0.5" />
<circle cx="172" cy="310" r="10" fill="#5d392f" fill-opacity="0.5" />
<circle cx="99" cy="12" r="10" fill="#f5e7dd" fill-opacity="0.5" />
<circle cx="345" cy="9" r="46" fill="#cabaad" fill-opacity="0.5" />
<circle cx="301" cy="200" r="16" fill="#725244" fill-opacity="0.5" />
<circle cx="301" cy="278" r="16" fill="#8b5f4c" fill-opacity="0.5" />
<circle cx="324" cy="194" r="9" fill="#0b0c10" fill-opacity="0.5" />
<circle cx="179" cy="345" r="12" fill="#ab705a" fill-opacity="0.5" />
<circle cx="100" cy="296" r="13" fill="#fbeede" fill-opacity="0.5" />
<circle cx="280" cy="208" r="7" fill="#27181c" fill-opacity="0.5" />
<circle cx="289" cy="370" r="10" fill="#0c060a" fill-opacity="0.5" />
<circle cx="25" cy="77" r="7" fill="#f2e4d7" fill-opacity="0.5" />
<circle cx="353" cy="146" r="13" fill="#3d3639" fill-opacity="0.5" />
<circle cx="309" cy="300" r="5" fill="#ffffff" fill-opacity="0.5" />
<circle cx="401" cy="349" r="21" fill="#a29e96" fill-opacity="0.5" />
<circle cx="389" cy="93" r="8" fill="#eee4dd" fill-opacity="0.5" />
<circle cx="392" cy="146" r="10" fill="#e5dad2" fill-opacity="0.5" />
<circle cx="405" cy="4" r="15" fill="#f6ebe4" fill-opacity="0.5" />
<circle cx="377" cy="368" r="9" fill="#313033" fill-opacity="0.5" />
<circle cx="359" cy="238" r="7" fill="#f1e5da" fill-opacity="0.5" />
<circle cx="327" cy="172" r="27" fill="#1c1819" fill-opacity="0.5" />
<circle cx="14" cy="418" r="20" fill="#1b1c1d" fill-opacity="0.5" />
<circle cx="315" cy="418" r="6" fill="#ffffff" fill-opacity="0.5" />
<circle cx="355" cy="101" r="5" fill="#cbbbac" fill-opacity="0.5" />
<circle cx="279" cy="260" r="12" fill="#f29e90" fill-opacity="0.5" />
<circle cx="381" cy="170" r="12" fill="#e6dbd6" fill-opacity="0.5" />
<circle cx="279" cy="287" r="14" fill="#8d5b48" fill-opacity="0.5" />
<circle cx="388" cy="332" r="12" fill="#999387" fill-opacity="0.5" />
<circle cx="223" cy="72" r="16" fill="#4a4449" fill-opacity="0.5" />
<circle cx="328" cy="333" r="14" fill="#070b0e" fill-opacity="0.5" />
<circle cx="419" cy="372" r="8" fill="#c3e1de" fill-opacity="0.5" />
<circle cx="82" cy="74" r="10" fill="#c1b5a1" fill-opacity="0.5" />
<circle cx="73" cy="78" r="12" fill="#bfb1a0" fill-opacity="0.5" />
<circle cx="123" cy="199" r="5" fill="#0b131c" fill-opacity="0.5" />
<circle cx="56" cy="418" r="36" fill="#1f1f20" fill-opacity="0.5" />
<circle cx="347" cy="359" r="19" fill="#27262b" fill-opacity="0.5" />
<circle cx="49" cy="55" r="7" fill="#f4e7de" fill-opacity="0.5" />
<circle cx="308" cy="237" r="8" fill="#d89884" fill-opacity="0.5" />
<circle cx="192" cy="234" r="14" fill="#d18977" fill-opacity="0.5" />
<circle cx="38" cy="317" r="17" fill="#8c867a" fill-opacity="0.5" />
<circle cx="409" cy="364" r="13" fill="#a4a199" fill-opacity="0.5" />
<circle cx="0" cy="226" r="13" fill="#c4b4a3" fill-opacity="0.5" />
<circle cx="211" cy="0" r="5" fill="#dde9e6" fill-opacity="0.5" />
<circle cx="125" cy="230" r="16" fill="#c78972" fill-opacity="0.5" />
<circle cx="205" cy="136" r="16" fill="#563329" fill-opacity="0.5" />
<circle cx="148" cy="235" r="16" fill="#eda995" fill-opacity="0.5" />
<circle cx="91" cy="235" r="5" fill="#510500" fill-opacity="0.5" />
<circle cx="161" cy="273" r="15" fill="#875446" fill-opacity="0.5" />
<circle cx="205" cy="275" r="13" fill="#60382d" fill-opacity="0.5" />
<circle cx="368" cy="117" r="10" fill="#c5b9aa" fill-opacity="0.5" />
<circle cx="347" cy="348" r="13" fill="#2f2e32" fill-opacity="0.5" />
<circle cx="353" cy="50" r="7" fill="#f3e6df" fill-opacity="0.5" />
<circle cx="121" cy="28" r="10" fill="#e9dbd3" fill-opacity="0.5" />
<circle cx="409" cy="77" r="9" fill="#eee2dd" fill-opacity="0.5" />
<circle cx="177" cy="288" r="11" fill="#ac7766" fill-opacity="0.5" />
<circle cx="203" cy="167" r="15" fill="#8c5a4d" fill-opacity="0.5" />
<circle cx="18" cy="221" r="7" fill="#eadcd3" fill-opacity="0.5" />
<circle cx="397" cy="83" r="6" fill="#eee4df" fill-opacity="0.5" />
<circle cx="229" cy="219" r="7" fill="#6f423d" fill-opacity="0.5" />
<circle cx="322" cy="214" r="8" fill="#06080c" fill-opacity="0.5" />
<circle cx="65" cy="198" r="6" fill="#efe0d3" fill-opacity="0.5" />
<circle cx="9" cy="94" r="8" fill="#e7dace" fill-opacity="0.5" />
<circle cx="313" cy="323" r="14" fill="#070b0c" fill-opacity="0.5" />
<circle cx="287" cy="299" r="18" fill="#8f634e" fill-opacity="0.5" />
<circle cx="229" cy="307" r="8" fill="#441c23" fill-opacity="0.5" />
<circle cx="247" cy="21" r="11" fill="#1a1719" fill-opacity="0.5" />
<circle cx="62" cy="233" r="17" fill="#cab9a5" fill-opacity="0.5" />
<circle cx="254" cy="178" r="8" fill="#181319" fill-opacity="0.5" />
<circle cx="364" cy="344" r="5" fill="#c5bfb5" fill-opacity="0.5" />
<circle cx="309" cy="225" r="6" fill="#ab826e" fill-opacity="0.5" />
<circle cx="12" cy="287" r="14" fill="#f5e8de" fill-opacity="0.5" />
<circle cx="114" cy="271" r="12" fill="#9e6f5b" fill-opacity="0.5" />
<circle cx="165" cy="363" r="8" fill="#35251f" fill-opacity="0.5" />
<circle cx="158" cy="176" r="8" fill="#1b1e20" fill-opacity="0.5" />
<circle cx="155" cy="2" r="7" fill="#f7eae0" fill-opacity="0.5" />
<circle cx="371" cy="252" r="7" fill="#f3e6d9" fill-opacity="0.5" />
<circle cx="204" cy="254" r="11" fill="#ffb0a1" fill-opacity="0.5" />
<circle cx="255" cy="10" r="8" fill="#beafa4" fill-opacity="0.5" />
<circle cx="370" cy="39" r="7" fill="#f3e8dc" fill-opacity="0.5" />
<circle cx="151" cy="203" r="5" fill="#0c070d" fill-opacity="0.5" />
<circle cx="261" cy="193" r="10" fill="#725046" fill-opacity="0.5" />
<circle cx="274" cy="18" r="10" fill="#b4a599" fill-opacity="0.5" />
<circle cx="356" cy="270" r="12" fill="#e7d1be" fill-opacity="0.5" />
<circle cx="289" cy="376" r="18" fill="#312420" fill-opacity="0.5" />
<circle cx="178" cy="166" r="7" fill="#956d61" fill-opacity="0.5" />
<circle cx="198" cy="0" r="8" fill="#a5b1b0" fill-opacity="0.5" />
<circle cx="197" cy="324" r="15" fill="#8b4741" fill-opacity="0.5" />
<circle cx="406" cy="138" r="6" fill="#efe0da" fill-opacity="0.5" />
<circle cx="159" cy="98" r="30" fill="#1e1a1c" fill-opacity="0.5" />
<circle cx="149" cy="296" r="14" fill="#a3725a" fill-opacity="0.5" />
<circle cx="37" cy="239" r="7" fill="#faecdd" fill-opacity="0.5" />
<circle cx="234" cy="263" r="5" fill="#ffb6a6" fill-opacity="0.5" />
<circle cx="59" cy="279" r="4" fill="#908275" fill-opacity="0.5" />
<circle cx="63" cy="130" r="9" fill="#4b423c" fill-opacity="0.5" />
<circle cx="176" cy="243" r="8" fill="#f6b09e" fill-opacity="0.5" />
<circle cx="102" cy="342" r="18" fill="#1b1a1c" fill-opacity="0.5" />
<circle cx="270" cy="134" r="21" fill="#342322" fill-opacity="0.5" />
<circle cx="376" cy="352" r="7" fill="#bab5ac" fill-opacity="0.5" />
<circle cx="282" cy="59" r="9" fill="#131217" fill-opacity="0.5" />
<circle cx="357" cy="336" r="4" fill="#cfcbc4" fill-opacity="0.5" />
<circle cx="80" cy="217" r="9" fill="#ddcfc2" fill-opacity="0.5" />
<circle cx="208" cy="243" r="7" fill="#ffe3d9" fill-opacity="0.5" />
<circle cx="293" cy="403" r="7" fill="#827f7e" fill-opacity="0.5" />
<circle cx="5" cy="209" r="7" fill="#efe3d4" fill-opacity="0.5" />
<circle cx="129" cy="56" r="4" fill="#77706e" fill-opacity="0.5" />
<circle cx="18" cy="85" r="6" fill="#f2e6d9" fill-opacity="0.5" />
<circle cx="104" cy="263" r="8" fill="#6d4134" fill-opacity="0.5" />
<circle cx="292" cy="382" r="7" fill="#010001" fill-opacity="0.5" />
<circle cx="67" cy="317" r="16" fill="#928d82" fill-opacity="0.5" />
<circle cx="168" cy="201" r="7" fill="#000009" fill-opacity="0.5" />
<circle cx="6" cy="365" r="8" fill="#ada8a0" fill-opacity="0.5" />
<circle cx="181" cy="4" r="5" fill="#fdfffe" fill-opacity="0.5" />
<circle cx="364" cy="309" r="12" fill="#fcf1ea" fill-opacity="0.5" />
<circle cx="311" cy="192" r="8" fill="#5e3e34" fill-opacity="0.5" />
<circle cx="234" cy="137" r="9" fill="#2e1e1b" fill-opacity="0.5" />
<circle cx="155" cy="362" r="11" fill="#3d2b23" fill-opacity="0.5" />
<circle cx="187" cy="10" r="6" fill="#2d2b2b" fill-opacity="0.5" />
<circle cx="134" cy="327" r="6" fill="#90674d" fill-opacity="0.5" />
<circle cx="316" cy="266" r="9" fill="#6b362e" fill-opacity="0.5" />
<circle cx="366" cy="128" r="6" fill="#c2b7aa" fill-opacity="0.5" />
<circle cx="253" cy="325" r="15" fill="#7a503f" fill-opacity="0.5" />
<circle cx="255" cy="244" r="9" fill="#ffc2b8" fill-opacity="0.5" />
<circle cx="71" cy="38" r="6" fill="#f4e6dc" fill-opacity="0.5" />
<circle cx="328" cy="326" r="8" fill="#0d0d0e" fill-opacity="0.5" />
<circle cx="265" cy="40" r="16" fill="#1e1a1d" fill-opacity="0.5" />
<circle cx="93" cy="89" r="12" fill="#3b3234" fill-opacity="0.5" />
<circle cx="380" cy="414" r="27" fill="#232325" fill-opacity="0.5" />
<circle cx="326" cy="81" r="9" fill="#6c6467" fill-opacity="0.5" />
<circle cx="71" cy="174" r="10" fill="#b7ac9a" fill-opacity="0.5" />
<circle cx="410" cy="298" r="4" fill="#9b8b88" fill-opacity="0.5" />
<circle cx="8" cy="26" r="7" fill="#f8e8db" fill-opacity="0.5" />
<circle cx="213" cy="350" r="10" fill="#a57060" fill-opacity="0.5" />
<circle cx="165" cy="193" r="6" fill="#846354" fill-opacity="0.5" />
<circle cx="107" cy="236" r="3" fill="#00000a" fill-opacity="0.5" />
<circle cx="302" cy="386" r="6" fill="#797377" fill-opacity="0.5" />
<circle cx="363" cy="46" r="5" fill="#f2e6de" fill-opacity="0.5" />
<circle cx="212" cy="35" r="10" fill="#2e2729" fill-opacity="0.5" />
<circle cx="228" cy="146" r="8" fill="#3b2624" fill-opacity="0.5" />
<circle cx="181" cy="77" r="23" fill="#2c292a" fill-opacity="0.5" />
<circle cx="216" cy="213" r="9" fill="#f2a699" fill-opacity="0.5" />
<circle cx="369" cy="164" r="8" fill="#b3a39b" fill-opacity="0.5" />
<circle cx="389" cy="209" r="6" fill="#ebddd6" fill-opacity="0.5" />
<circle cx="286" cy="416" r="6" fill="#000001" fill-opacity="0.5" />
<circle cx="91" cy="313" r="10" fill="#969085" fill-opacity="0.5" />
<circle cx="350" cy="326" r="7" fill="#898f82" fill-opacity="0.5" />
<circle cx="190" cy="0" r="7" fill="#c2b7b0" fill-opacity="0.5" />
<circle cx="59" cy="147" r="10" fill="#ae9f91" fill-opacity="0.5" />
<circle cx="32" cy="372" r="5" fill="#090a0e" fill-opacity="0.5" />
<circle cx="333" cy="349" r="7" fill="#090b0e" fill-opacity="0.5" />
<circle cx="386" cy="296" r="4" fill="#95877d" fill-opacity="0.5" />
<circle cx="267" cy="176" r="8" fill="#171512" fill-opacity="0.5" />
<circle cx="144" cy="251" r="13" fill="#e59b89" fill-opacity="0.5" />
<circle cx="368" cy="174" r="6" fill="#e6d9d3" fill-opacity="0.5" />
<circle cx="58" cy="339" r="8" fill="#b8b0a8" fill-opacity="0.5" />
<circle cx="194" cy="271" r="7" fill="#5e3129" fill-opacity="0.5" />
<circle cx="48" cy="417" r="8" fill="#000000" fill-opacity="0.5" />
<circle cx="329" cy="54" r="12" fill="#bcada4" fill-opacity="0.5" />
<circle cx="202" cy="101" r="17" fill="#312f31" fill-opacity="0.5" />
<circle cx="25" cy="230" r="7" fill="#f0e4d5" fill-opacity="0.5" />
<circle cx="265" cy="245" r="12" fill="#ffb8aa" fill-opacity="0.5" />
</svg>